<mxfile host="app.diagrams.net" modified="2023-12-08T12:38:08.227Z" agent="Mozilla/5.0 (Windows NT 10.0; Win64; x64) AppleWebKit/537.36 (KHTML, like Gecko) Chrome/120.0.0.0 Safari/537.36" etag="ypqPJO2FTq2zv28fNUyA" version="22.1.7" type="device">
  <diagram name="페이지-1" id="ZjC7YJdd-9tvdcLCh0XG">
    <mxGraphModel dx="854" dy="999" grid="1" gridSize="10" guides="1" tooltips="1" connect="1" arrows="1" fold="1" page="1" pageScale="1" pageWidth="827" pageHeight="1169" math="0" shadow="0">
      <root>
        <mxCell id="0" />
        <mxCell id="1" parent="0" />
        <mxCell id="3abRl5l0_RfInDWmERTD-1" value="" style="whiteSpace=wrap;html=1;aspect=fixed;" vertex="1" parent="1">
          <mxGeometry x="230" y="80" width="460" height="460" as="geometry" />
        </mxCell>
        <mxCell id="3abRl5l0_RfInDWmERTD-2" value="플레이어" style="shape=umlActor;verticalLabelPosition=bottom;verticalAlign=top;html=1;outlineConnect=0;" vertex="1" parent="1">
          <mxGeometry x="90" y="260" width="60" height="90" as="geometry" />
        </mxCell>
        <mxCell id="3abRl5l0_RfInDWmERTD-4" value="게임 시작하기" style="ellipse;whiteSpace=wrap;html=1;" vertex="1" parent="1">
          <mxGeometry x="280" y="150" width="140" height="40" as="geometry" />
        </mxCell>
        <mxCell id="3abRl5l0_RfInDWmERTD-5" value="게임 플레이하기" style="ellipse;whiteSpace=wrap;html=1;" vertex="1" parent="1">
          <mxGeometry x="339" y="285" width="150" height="40" as="geometry" />
        </mxCell>
        <mxCell id="3abRl5l0_RfInDWmERTD-6" value="종료하기" style="ellipse;whiteSpace=wrap;html=1;" vertex="1" parent="1">
          <mxGeometry x="275" y="430" width="150" height="40" as="geometry" />
        </mxCell>
        <mxCell id="3abRl5l0_RfInDWmERTD-7" value="" style="endArrow=none;html=1;rounded=0;entryX=0.036;entryY=0.8;entryDx=0;entryDy=0;entryPerimeter=0;" edge="1" parent="1" target="3abRl5l0_RfInDWmERTD-4">
          <mxGeometry width="50" height="50" relative="1" as="geometry">
            <mxPoint x="160" y="300" as="sourcePoint" />
            <mxPoint x="520" y="330" as="targetPoint" />
          </mxGeometry>
        </mxCell>
        <mxCell id="3abRl5l0_RfInDWmERTD-8" value="" style="endArrow=none;html=1;rounded=0;entryX=0;entryY=0.5;entryDx=0;entryDy=0;endFill=0;" edge="1" parent="1" target="3abRl5l0_RfInDWmERTD-5">
          <mxGeometry width="50" height="50" relative="1" as="geometry">
            <mxPoint x="160" y="320" as="sourcePoint" />
            <mxPoint x="520" y="330" as="targetPoint" />
          </mxGeometry>
        </mxCell>
        <mxCell id="3abRl5l0_RfInDWmERTD-9" value="" style="endArrow=none;html=1;rounded=0;endFill=0;" edge="1" parent="1" target="3abRl5l0_RfInDWmERTD-6">
          <mxGeometry width="50" height="50" relative="1" as="geometry">
            <mxPoint x="160" y="340" as="sourcePoint" />
            <mxPoint x="520" y="330" as="targetPoint" />
          </mxGeometry>
        </mxCell>
        <mxCell id="3abRl5l0_RfInDWmERTD-10" value="캐릭터의 방향 바꾸기" style="ellipse;whiteSpace=wrap;html=1;" vertex="1" parent="1">
          <mxGeometry x="530" y="230" width="150" height="40" as="geometry" />
        </mxCell>
        <mxCell id="3abRl5l0_RfInDWmERTD-11" value="오브젝트와 캐릭터&lt;br&gt;충돌시키기" style="ellipse;whiteSpace=wrap;html=1;" vertex="1" parent="1">
          <mxGeometry x="540" y="340" width="150" height="40" as="geometry" />
        </mxCell>
        <mxCell id="3abRl5l0_RfInDWmERTD-12" style="edgeStyle=orthogonalEdgeStyle;rounded=0;orthogonalLoop=1;jettySize=auto;html=1;entryX=0.94;entryY=0.125;entryDx=0;entryDy=0;entryPerimeter=0;endArrow=block;endFill=0;dashed=1;dashPattern=8 8;" edge="1" parent="1" source="3abRl5l0_RfInDWmERTD-10" target="3abRl5l0_RfInDWmERTD-5">
          <mxGeometry relative="1" as="geometry" />
        </mxCell>
        <mxCell id="3abRl5l0_RfInDWmERTD-13" style="edgeStyle=orthogonalEdgeStyle;rounded=0;orthogonalLoop=1;jettySize=auto;html=1;entryX=0.9;entryY=0.875;entryDx=0;entryDy=0;entryPerimeter=0;dashed=1;dashPattern=8 8;endArrow=block;endFill=0;" edge="1" parent="1" source="3abRl5l0_RfInDWmERTD-11" target="3abRl5l0_RfInDWmERTD-5">
          <mxGeometry relative="1" as="geometry">
            <Array as="points">
              <mxPoint x="480" y="360" />
              <mxPoint x="480" y="320" />
            </Array>
          </mxGeometry>
        </mxCell>
        <mxCell id="3abRl5l0_RfInDWmERTD-14" value="&amp;lt;&amp;lt;extends&amp;gt;&amp;gt;" style="text;html=1;strokeColor=none;fillColor=none;align=center;verticalAlign=middle;whiteSpace=wrap;rounded=0;" vertex="1" parent="1">
          <mxGeometry x="470" y="220" width="60" height="30" as="geometry" />
        </mxCell>
        <mxCell id="3abRl5l0_RfInDWmERTD-15" value="&amp;lt;&amp;lt;extends&amp;gt;&amp;gt;" style="text;html=1;strokeColor=none;fillColor=none;align=center;verticalAlign=middle;whiteSpace=wrap;rounded=0;" vertex="1" parent="1">
          <mxGeometry x="470" y="360" width="60" height="30" as="geometry" />
        </mxCell>
      </root>
    </mxGraphModel>
  </diagram>
</mxfile>
